<?xml version="1.0" encoding="utf-8"?>
<!-- Generator: Adobe Illustrator 16.0.0, SVG Export Plug-In . SVG Version: 6.00 Build 0)  -->
<!DOCTYPE svg PUBLIC "-//W3C//DTD SVG 1.1//EN" "http://www.w3.org/Graphics/SVG/1.1/DTD/svg11.dtd">
<svg version="1.1" id="레이어_1" xmlns="http://www.w3.org/2000/svg" xmlns:xlink="http://www.w3.org/1999/xlink" x="0px"
	 y="0px" width="595px" height="842px" viewBox="0 0 595 842" enable-background="new 0 0 595 842" xml:space="preserve">
<g>
	<path fill="#E60012" d="M248.64,64.301v-10.08c-3.52,0.053-6.707,0.506-9.56,1.36s-5.293,2.187-7.32,4
		c-2.88,2.507-4.973,5.546-6.28,9.12c-1.307,3.573-1.96,8.026-1.96,13.36c0,2.24-0.106,4.16-0.32,5.76
		c-0.213,1.6-0.507,2.973-0.88,4.12c-0.374,1.147-0.84,2.106-1.4,2.88s-1.16,1.427-1.8,1.96c-1.387,1.173-3.08,1.973-5.08,2.399
		c-2,0.427-3.934,0.64-5.8,0.64v10c3.68,0.053,6.973-0.333,9.88-1.16c2.907-0.827,5.454-2.147,7.64-3.96
		c1.813-1.494,3.28-3.16,4.4-5c1.12-1.84,1.96-3.733,2.52-5.68s0.933-3.947,1.12-6c0.187-2.053,0.28-4.04,0.28-5.96
		c0-2.133,0.107-4,0.32-5.6s0.52-2.973,0.92-4.12c0.4-1.146,0.88-2.12,1.44-2.92s1.187-1.52,1.88-2.16
		c1.014-0.907,2.387-1.627,4.12-2.16C244.493,64.567,246.453,64.301,248.64,64.301z"/>
	<path d="M329.348,110.541v-7.26h0.001c1.04,0,2.02-0.21,2.939-0.63s1.73-1.02,2.431-1.8c0.699-0.78,1.25-1.71,1.649-2.791
		c0.4-1.08,0.6-2.28,0.6-3.6s-0.199-2.54-0.6-3.66c-0.399-1.12-0.95-2.08-1.649-2.88c-0.7-0.8-1.511-1.42-2.431-1.86
		s-1.899-0.66-2.939-0.66h-0.001v-7.26h0.001c2.16,0,4.18,0.41,6.06,1.23c1.88,0.82,3.53,1.959,4.95,3.42
		c1.42,1.46,2.54,3.18,3.36,5.16c0.819,1.98,1.229,4.13,1.229,6.45s-0.41,4.46-1.229,6.42c-0.82,1.96-1.94,3.66-3.36,5.1
		s-3.07,2.57-4.95,3.39C333.528,110.131,331.509,110.541,329.348,110.541L329.348,110.541L329.348,110.541z M359.744,109.821h5.521
		c2.16,0,4.16-0.41,6-1.23c1.84-0.82,3.43-1.93,4.77-3.33c1.341-1.4,2.391-3.05,3.15-4.95s1.14-3.93,1.14-6.09
		c0-2.2-0.39-4.27-1.17-6.21c-0.78-1.94-1.86-3.64-3.24-5.1c-1.38-1.459-3.05-2.62-5.01-3.479c-1.96-0.86-4.1-1.29-6.42-1.29
		s-4.45,0.43-6.39,1.29c-1.94,0.86-3.61,2.03-5.01,3.51c-1.4,1.48-2.49,3.21-3.271,5.19s-1.17,4.09-1.17,6.33v29.1h7.92v-29.1
		c0-1.2,0.21-2.32,0.63-3.36s0.99-1.95,1.71-2.73c0.72-0.78,1.561-1.4,2.521-1.86s1.979-0.69,3.06-0.69s2.101,0.22,3.06,0.66
		c0.961,0.44,1.801,1.04,2.521,1.8c0.72,0.76,1.29,1.649,1.71,2.67c0.42,1.02,0.63,2.109,0.63,3.27c0,1.16-0.21,2.22-0.63,3.18
		s-0.99,1.79-1.71,2.49c-0.72,0.7-1.58,1.25-2.58,1.65s-2.06,0.6-3.18,0.6h-4.561V109.821z M285.116,91.941
		c0-2.04-0.311-3.9-0.93-5.58c-0.62-1.68-1.52-3.13-2.7-4.35s-2.62-2.17-4.32-2.85c-1.7-0.68-3.63-1.02-5.79-1.02
		c-2.04,0-3.9,0.39-5.58,1.169c-1.68,0.78-3.1,1.851-4.26,3.21c-1.12-1.36-2.51-2.43-4.169-3.21c-1.66-0.779-3.55-1.169-5.67-1.169
		s-4.04,0.35-5.76,1.05c-1.72,0.7-3.18,1.67-4.38,2.91c-1.2,1.24-2.13,2.7-2.79,4.38c-0.66,1.68-0.99,3.5-0.99,5.46v17.88h7.92
		v-18.06c0-1.76,0.55-3.18,1.65-4.26c1.1-1.08,2.55-1.62,4.35-1.62c1.32,0,2.36,0.22,3.12,0.66c0.76,0.44,1.33,0.98,1.71,1.62
		c0.38,0.64,0.63,1.291,0.75,1.95c0.12,0.66,0.18,1.21,0.18,1.65v18.06h7.92v-18.06c0-1.76,0.56-3.18,1.68-4.26
		c1.12-1.08,2.56-1.62,4.32-1.62c1.32,0,2.36,0.22,3.12,0.66c0.76,0.44,1.34,0.98,1.74,1.62c0.4,0.64,0.66,1.291,0.78,1.95
		c0.12,0.66,0.18,1.21,0.18,1.65v18.06h7.92V91.941L285.116,91.941z M329.348,78.141v7.26c-1.039,0-2.029,0.22-2.97,0.66
		c-0.939,0.44-1.75,1.06-2.43,1.86c-0.68,0.8-1.22,1.76-1.62,2.88c-0.399,1.12-0.6,2.34-0.6,3.66s0.2,2.52,0.6,3.6
		c0.4,1.08,0.94,2.01,1.62,2.791c0.68,0.78,1.49,1.38,2.43,1.8c0.94,0.42,1.931,0.63,2.97,0.63v7.26c-2.159,0-4.18-0.41-6.06-1.23
		c-1.88-0.82-3.52-1.95-4.92-3.39c-1.399-1.44-2.51-3.14-3.33-5.1s-1.229-4.1-1.229-6.42s0.409-4.47,1.229-6.45s1.931-3.7,3.33-5.16
		c1.4-1.46,3.04-2.6,4.92-3.42C325.168,78.551,327.188,78.141,329.348,78.141L329.348,78.141z M304.772,109.821h6.18v-7.68h-5.52
		c-1.24,0-2.36-0.2-3.36-0.6s-1.86-0.95-2.58-1.65c-0.72-0.7-1.271-1.53-1.65-2.49c-0.38-0.96-0.57-1.98-0.57-3.06
		s0.19-2.1,0.57-3.06c0.379-0.96,0.93-1.79,1.65-2.49c0.72-0.7,1.58-1.25,2.58-1.65c1-0.4,2.12-0.6,3.36-0.6h5.52v-7.62h-6.18
		c-2.36,0-4.49,0.4-6.391,1.2c-1.9,0.8-3.52,1.89-4.86,3.27c-1.34,1.38-2.37,3.01-3.09,4.89c-0.72,1.88-1.08,3.899-1.08,6.06
		s0.36,4.18,1.08,6.06c0.72,1.88,1.75,3.52,3.09,4.92c1.34,1.4,2.96,2.5,4.86,3.3C300.282,109.421,302.412,109.821,304.772,109.821z
		"/>
</g>
<g>
	<path d="M214.224,119.448c0.247,0.412,0.342,0.87,0.284,1.374c-0.087,0.656-0.375,1.224-0.863,1.704s-1.201,0.72-2.14,0.72
		c-1.041,0-1.809-0.34-2.304-1.02c-0.495-0.68-0.753-1.388-0.775-2.124h1.06c0.029,0.696,0.231,1.228,0.606,1.596
		c0.375,0.368,0.854,0.552,1.436,0.552c0.589,0,1.032-0.142,1.327-0.426c0.295-0.284,0.482-0.634,0.563-1.05
		c0.058-0.328,0.011-0.596-0.142-0.804s-0.386-0.396-0.699-0.564c-0.35-0.184-0.723-0.286-1.12-0.306s-0.799-0.122-1.207-0.306
		c-0.51-0.232-0.899-0.514-1.168-0.846c-0.27-0.332-0.397-0.79-0.382-1.374c0.015-0.568,0.253-1.116,0.715-1.644
		c0.462-0.528,1.148-0.792,2.059-0.792c1.084,0,1.827,0.334,2.228,1.002s0.601,1.246,0.601,1.734l-1.059-0.012
		c0-0.472-0.144-0.882-0.432-1.23c-0.288-0.348-0.733-0.522-1.337-0.522c-0.568,0-0.985,0.154-1.25,0.462
		c-0.266,0.308-0.398,0.642-0.398,1.002c0,0.384,0.104,0.664,0.311,0.84s0.424,0.308,0.65,0.396c0.291,0.112,0.661,0.202,1.108,0.27
		s0.886,0.21,1.316,0.426C213.638,118.722,213.977,119.036,214.224,119.448z"/>
	<path d="M221.999,122.922l-0.011-3.9c0-0.496-0.064-0.872-0.191-1.128s-0.417-0.372-0.868-0.348
		c-0.378,0.032-0.681,0.194-0.906,0.486s-0.338,0.698-0.338,1.218v3.672h-1.005v-3.9c0-0.496-0.062-0.872-0.186-1.128
		c-0.124-0.256-0.411-0.372-0.863-0.348c-0.386,0.032-0.691,0.194-0.917,0.486c-0.226,0.292-0.339,0.698-0.339,1.218v3.672h-0.994
		v-6.156h0.994v0.744c0.189-0.232,0.437-0.464,0.743-0.696s0.691-0.324,1.158-0.276c0.262,0.032,0.5,0.132,0.715,0.3
		c0.214,0.168,0.384,0.424,0.508,0.768c0.138-0.184,0.373-0.424,0.704-0.72c0.331-0.296,0.788-0.412,1.371-0.348
		c0.546,0.072,0.917,0.326,1.114,0.762c0.196,0.437,0.295,0.91,0.295,1.422v4.2H221.999z"/>
	<path d="M228.289,122.934c-0.065-0.112-0.111-0.254-0.136-0.426c-0.025-0.172-0.042-0.326-0.049-0.462
		c-0.226,0.264-0.517,0.506-0.874,0.726c-0.357,0.22-0.761,0.342-1.212,0.366c-0.568,0.032-1.063-0.076-1.485-0.324
		s-0.666-0.652-0.731-1.212c-0.073-0.568,0.023-1.012,0.289-1.332c0.266-0.32,0.61-0.544,1.032-0.672
		c0.334-0.112,0.686-0.18,1.054-0.204s0.73-0.072,1.086-0.144c0.182-0.04,0.368-0.09,0.557-0.15c0.189-0.06,0.284-0.234,0.284-0.522
		c0-0.264-0.109-0.52-0.328-0.768c-0.218-0.248-0.597-0.372-1.135-0.372c-0.539,0-0.93,0.112-1.174,0.336
		c-0.244,0.224-0.348,0.496-0.311,0.816h-1.005c-0.051-0.664,0.175-1.174,0.677-1.53s1.106-0.534,1.813-0.534
		c0.647,0,1.227,0.178,1.736,0.534c0.51,0.356,0.765,0.85,0.765,1.482v3.396c0,0.288,0.034,0.522,0.104,0.702
		c0.069,0.18,0.107,0.278,0.115,0.294H228.289z M228.103,119.718c-0.073,0.056-0.164,0.112-0.273,0.168
		c-0.109,0.056-0.218,0.096-0.328,0.12c-0.218,0.056-0.511,0.102-0.879,0.138s-0.639,0.086-0.813,0.15
		c-0.328,0.112-0.579,0.25-0.753,0.414s-0.24,0.41-0.197,0.738c0.037,0.328,0.184,0.546,0.442,0.654
		c0.258,0.108,0.533,0.154,0.824,0.138c0.648-0.048,1.14-0.256,1.475-0.624c0.334-0.368,0.502-0.712,0.502-1.032V119.718z"/>
	<path d="M233.301,117.666c-0.197,0-0.364,0.008-0.502,0.024s-0.277,0.064-0.415,0.144c-0.335,0.184-0.588,0.446-0.759,0.786
		s-0.257,0.802-0.257,1.386v2.904h-0.994v-6.144h0.994v0.864l0.066,0.024c0.131-0.24,0.278-0.434,0.442-0.582
		c0.164-0.148,0.359-0.274,0.584-0.378c0.167-0.088,0.348-0.136,0.541-0.144c0.193-0.008,0.293-0.012,0.3-0.012V117.666z"/>
	<path d="M235.67,122.922c-0.204,0-0.38-0.052-0.529-0.156c-0.149-0.104-0.271-0.224-0.366-0.36
		c-0.095-0.136-0.159-0.284-0.191-0.444c-0.033-0.16-0.049-0.4-0.049-0.72v-3.528h-0.721v-0.888l0.721-0.012v-1.944h0.994v1.944
		l0.841,0.012v0.888h-0.841v3.372c0,0.144,0.001,0.276,0.005,0.396c0.003,0.12,0.063,0.236,0.18,0.348
		c0.087,0.088,0.196,0.142,0.328,0.162c0.131,0.02,0.24,0.03,0.328,0.03l0.011,0.9H235.67z"/>
	<path d="M247.497,122.85v-6.084l-0.109-0.024l-1.987,6.108h-1.212l-1.988-6.12l-0.098,0.036v6.084h-0.896v-8.376h1.114l2.49,7.32
		l2.446-7.32h1.136v8.376H247.497z"/>
	<path d="M253.797,122.934c-0.065-0.112-0.111-0.254-0.136-0.426c-0.025-0.172-0.042-0.326-0.049-0.462
		c-0.226,0.264-0.517,0.506-0.874,0.726c-0.357,0.22-0.761,0.342-1.212,0.366c-0.568,0.032-1.063-0.076-1.485-0.324
		s-0.666-0.652-0.731-1.212c-0.073-0.568,0.023-1.012,0.289-1.332c0.266-0.32,0.61-0.544,1.032-0.672
		c0.334-0.112,0.686-0.18,1.054-0.204s0.73-0.072,1.086-0.144c0.182-0.04,0.368-0.09,0.557-0.15c0.189-0.06,0.284-0.234,0.284-0.522
		c0-0.264-0.109-0.52-0.328-0.768c-0.218-0.248-0.597-0.372-1.135-0.372c-0.539,0-0.93,0.112-1.174,0.336
		c-0.244,0.224-0.348,0.496-0.311,0.816h-1.005c-0.051-0.664,0.175-1.174,0.677-1.53s1.106-0.534,1.813-0.534
		c0.647,0,1.227,0.178,1.736,0.534c0.51,0.356,0.765,0.85,0.765,1.482v3.396c0,0.288,0.034,0.522,0.104,0.702
		c0.069,0.18,0.107,0.278,0.115,0.294H253.797z M253.611,119.718c-0.073,0.056-0.164,0.112-0.273,0.168
		c-0.109,0.056-0.218,0.096-0.328,0.12c-0.218,0.056-0.511,0.102-0.879,0.138s-0.639,0.086-0.813,0.15
		c-0.328,0.112-0.579,0.25-0.753,0.414s-0.24,0.41-0.197,0.738c0.037,0.328,0.184,0.546,0.442,0.654
		c0.258,0.108,0.533,0.154,0.824,0.138c0.648-0.048,1.14-0.256,1.475-0.624c0.334-0.368,0.502-0.712,0.502-1.032V119.718z"/>
	<path d="M259.803,122.922v-3.72c0-0.56-0.107-0.964-0.322-1.212s-0.544-0.372-0.988-0.372c-0.466,0-0.852,0.172-1.157,0.516
		c-0.306,0.344-0.459,0.768-0.459,1.272v3.516h-0.994v-6.156h0.994v0.696c0.255-0.256,0.564-0.488,0.928-0.696
		c0.364-0.208,0.801-0.28,1.311-0.216c0.604,0.08,1.038,0.356,1.299,0.828c0.262,0.472,0.394,0.92,0.394,1.344v4.2H259.803z"/>
	<path d="M266.125,122.934c-0.065-0.112-0.111-0.254-0.136-0.426c-0.025-0.172-0.042-0.326-0.049-0.462
		c-0.226,0.264-0.517,0.506-0.874,0.726c-0.357,0.22-0.761,0.342-1.212,0.366c-0.568,0.032-1.063-0.076-1.485-0.324
		s-0.666-0.652-0.731-1.212c-0.073-0.568,0.023-1.012,0.289-1.332c0.266-0.32,0.61-0.544,1.032-0.672
		c0.334-0.112,0.686-0.18,1.054-0.204s0.73-0.072,1.086-0.144c0.182-0.04,0.368-0.09,0.557-0.15c0.189-0.06,0.284-0.234,0.284-0.522
		c0-0.264-0.109-0.52-0.328-0.768c-0.218-0.248-0.597-0.372-1.135-0.372c-0.539,0-0.93,0.112-1.174,0.336
		c-0.244,0.224-0.348,0.496-0.311,0.816h-1.005c-0.051-0.664,0.175-1.174,0.677-1.53s1.106-0.534,1.813-0.534
		c0.647,0,1.227,0.178,1.736,0.534c0.51,0.356,0.765,0.85,0.765,1.482v3.396c0,0.288,0.034,0.522,0.104,0.702
		c0.069,0.18,0.107,0.278,0.115,0.294H266.125z M265.94,119.718c-0.073,0.056-0.164,0.112-0.273,0.168
		c-0.109,0.056-0.218,0.096-0.328,0.12c-0.218,0.056-0.511,0.102-0.879,0.138s-0.639,0.086-0.813,0.15
		c-0.328,0.112-0.579,0.25-0.753,0.414s-0.24,0.41-0.197,0.738c0.037,0.328,0.184,0.546,0.442,0.654
		c0.258,0.108,0.533,0.154,0.824,0.138c0.648-0.048,1.14-0.256,1.475-0.624c0.334-0.368,0.502-0.712,0.502-1.032V119.718z"/>
	<path d="M273.387,122.01c0,1-0.278,1.688-0.835,2.064c-0.557,0.375-1.163,0.564-1.818,0.564c-0.823,0-1.463-0.21-1.922-0.63
		c-0.458-0.42-0.706-0.89-0.742-1.41h0.994c0.021,0.272,0.167,0.524,0.437,0.756c0.27,0.232,0.685,0.348,1.245,0.348
		s0.976-0.142,1.245-0.426c0.27-0.284,0.404-0.698,0.404-1.242v-0.612c-0.27,0.296-0.566,0.526-0.89,0.69
		c-0.324,0.164-0.665,0.246-1.021,0.246c-0.735,0-1.369-0.276-1.9-0.828c-0.532-0.552-0.797-1.268-0.797-2.148
		c0-0.88,0.253-1.584,0.759-2.112c0.506-0.528,1.152-0.792,1.938-0.792c0.364,0,0.708,0.078,1.032,0.234
		c0.324,0.156,0.617,0.374,0.879,0.654v-0.648h0.994V122.01z M271.946,120.906c0.334-0.336,0.502-0.844,0.502-1.524
		c0-0.688-0.168-1.184-0.502-1.488c-0.335-0.304-0.772-0.456-1.311-0.456c-0.531,0-0.963,0.152-1.294,0.456
		c-0.332,0.304-0.497,0.8-0.497,1.488c0,0.68,0.166,1.188,0.497,1.524c0.331,0.336,0.763,0.504,1.294,0.504
		C271.174,121.41,271.611,121.242,271.946,120.906z"/>
	<path d="M275.331,120.15c0.014,0.624,0.196,1.13,0.546,1.518c0.349,0.388,0.761,0.582,1.234,0.582c0.466,0,0.815-0.112,1.048-0.336
		c0.233-0.224,0.378-0.436,0.437-0.636h1.07c-0.117,0.408-0.375,0.812-0.775,1.212c-0.4,0.4-0.99,0.6-1.769,0.6
		c-0.823,0-1.496-0.308-2.02-0.924c-0.524-0.616-0.786-1.396-0.786-2.34s0.253-1.718,0.759-2.322s1.185-0.906,2.037-0.906
		c0.757,0,1.414,0.28,1.971,0.84c0.557,0.56,0.828,1.464,0.813,2.712H275.331z M278.858,119.322
		c-0.029-0.576-0.196-1.034-0.502-1.374c-0.306-0.34-0.721-0.51-1.245-0.51c-0.488,0-0.89,0.154-1.207,0.462
		c-0.317,0.308-0.501,0.782-0.552,1.422H278.858z"/>
	<path d="M287.441,122.922l-0.011-3.9c0-0.496-0.064-0.872-0.191-1.128s-0.417-0.372-0.868-0.348
		c-0.378,0.032-0.681,0.194-0.906,0.486s-0.338,0.698-0.338,1.218v3.672h-1.005v-3.9c0-0.496-0.062-0.872-0.186-1.128
		c-0.124-0.256-0.411-0.372-0.863-0.348c-0.386,0.032-0.691,0.194-0.917,0.486c-0.226,0.292-0.339,0.698-0.339,1.218v3.672h-0.994
		v-6.156h0.994v0.744c0.189-0.232,0.437-0.464,0.743-0.696s0.691-0.324,1.158-0.276c0.262,0.032,0.5,0.132,0.715,0.3
		c0.214,0.168,0.384,0.424,0.508,0.768c0.138-0.184,0.373-0.424,0.704-0.72c0.331-0.296,0.788-0.412,1.371-0.348
		c0.546,0.072,0.917,0.326,1.113,0.762c0.197,0.437,0.295,0.91,0.295,1.422v4.2H287.441z"/>
	<path d="M290.313,120.15c0.015,0.624,0.196,1.13,0.546,1.518c0.35,0.388,0.761,0.582,1.233,0.582c0.466,0,0.815-0.112,1.049-0.336
		c0.232-0.224,0.378-0.436,0.437-0.636h1.07c-0.116,0.408-0.375,0.812-0.775,1.212c-0.4,0.4-0.99,0.6-1.769,0.6
		c-0.823,0-1.496-0.308-2.021-0.924s-0.786-1.396-0.786-2.34s0.253-1.718,0.759-2.322s1.185-0.906,2.036-0.906
		c0.758,0,1.415,0.28,1.972,0.84s0.828,1.464,0.813,2.712H290.313z M293.84,119.322c-0.029-0.576-0.197-1.034-0.503-1.374
		c-0.306-0.34-0.721-0.51-1.245-0.51c-0.487,0-0.89,0.154-1.206,0.462c-0.316,0.308-0.501,0.782-0.552,1.422H293.84z"/>
	<path d="M299.727,122.922v-3.72c0-0.56-0.107-0.964-0.322-1.212s-0.545-0.372-0.988-0.372c-0.466,0-0.852,0.172-1.158,0.516
		c-0.306,0.344-0.459,0.768-0.459,1.272v3.516h-0.993v-6.156h0.993v0.696c0.255-0.256,0.564-0.488,0.929-0.696
		c0.364-0.208,0.801-0.28,1.311-0.216c0.604,0.08,1.037,0.356,1.299,0.828c0.262,0.472,0.393,0.92,0.393,1.344v4.2H299.727z"/>
	<path d="M303.318,122.922c-0.205,0-0.381-0.052-0.529-0.156c-0.15-0.104-0.271-0.224-0.367-0.36
		c-0.094-0.136-0.158-0.284-0.189-0.444c-0.033-0.16-0.051-0.4-0.051-0.72v-3.528h-0.721v-0.888l0.721-0.012v-1.944h0.994v1.944
		l0.842,0.012v0.888h-0.842v3.372c0,0.144,0.002,0.276,0.006,0.396s0.064,0.236,0.18,0.348c0.088,0.088,0.197,0.142,0.328,0.162
		s0.24,0.03,0.328,0.03l0.01,0.9H303.318z"/>
	<path d="M314.086,119.448c0.246,0.412,0.342,0.87,0.283,1.374c-0.088,0.656-0.375,1.224-0.863,1.704
		c-0.486,0.48-1.201,0.72-2.141,0.72c-1.041,0-1.809-0.34-2.303-1.02c-0.496-0.68-0.754-1.388-0.775-2.124h1.059
		c0.029,0.696,0.23,1.228,0.605,1.596c0.375,0.368,0.854,0.552,1.438,0.552c0.59,0,1.031-0.142,1.326-0.426
		c0.295-0.284,0.482-0.634,0.563-1.05c0.059-0.328,0.01-0.596-0.143-0.804s-0.385-0.396-0.699-0.564
		c-0.35-0.184-0.723-0.286-1.119-0.306s-0.799-0.122-1.205-0.306c-0.51-0.232-0.9-0.514-1.17-0.846s-0.396-0.79-0.381-1.374
		c0.014-0.568,0.252-1.116,0.715-1.644c0.461-0.528,1.148-0.792,2.059-0.792c1.084,0,1.826,0.334,2.227,1.002
		s0.602,1.246,0.602,1.734l-1.061-0.012c0-0.472-0.143-0.882-0.43-1.23c-0.289-0.348-0.734-0.522-1.338-0.522
		c-0.568,0-0.984,0.154-1.25,0.462c-0.268,0.308-0.4,0.642-0.4,1.002c0,0.384,0.105,0.664,0.313,0.84s0.424,0.308,0.648,0.396
		c0.291,0.112,0.662,0.202,1.109,0.27s0.887,0.21,1.316,0.426C313.5,118.722,313.838,119.036,314.086,119.448z"/>
	<path d="M317.602,123.582c-0.072,0.2-0.172,0.374-0.301,0.522c-0.127,0.148-0.264,0.266-0.408,0.354
		c-0.168,0.096-0.332,0.154-0.492,0.174s-0.324,0.026-0.49,0.018h-0.34v-0.912h0.514c0.16-0.008,0.293-0.062,0.398-0.162
		c0.105-0.1,0.184-0.214,0.234-0.342l0.252-0.588l-2.314-5.892l1.025-0.012l1.748,4.524l1.746-4.512h1.027L317.602,123.582z"/>
	<path d="M324.918,120.282c0.211,0.224,0.305,0.536,0.283,0.936c-0.029,0.56-0.275,1.022-0.736,1.386
		c-0.463,0.364-1.014,0.546-1.654,0.546c-0.99,0-1.664-0.274-2.021-0.822c-0.355-0.548-0.541-1.014-0.557-1.398h0.994
		c0.037,0.344,0.188,0.632,0.453,0.864c0.266,0.232,0.631,0.348,1.098,0.348c0.387,0,0.693-0.072,0.922-0.216
		c0.23-0.144,0.371-0.352,0.422-0.624c0.029-0.192-0.018-0.355-0.137-0.492c-0.121-0.136-0.287-0.256-0.498-0.36
		c-0.313-0.16-0.643-0.268-0.988-0.324c-0.346-0.056-0.639-0.124-0.879-0.204c-0.342-0.128-0.625-0.32-0.852-0.576
		c-0.225-0.256-0.326-0.592-0.305-1.008c0.021-0.456,0.232-0.868,0.633-1.236s0.949-0.552,1.648-0.552
		c0.779,0,1.355,0.227,1.727,0.678c0.371,0.452,0.549,0.878,0.535,1.278h-0.994c0-0.16-0.086-0.36-0.258-0.6
		c-0.17-0.24-0.525-0.36-1.064-0.36c-0.443,0-0.754,0.084-0.928,0.252s-0.262,0.352-0.262,0.552c0,0.272,0.084,0.458,0.25,0.558
		c0.168,0.1,0.361,0.186,0.58,0.258c0.254,0.08,0.557,0.15,0.906,0.21s0.658,0.17,0.928,0.33
		C324.455,119.866,324.707,120.058,324.918,120.282z"/>
	<path d="M327.408,122.922c-0.205,0-0.381-0.052-0.529-0.156c-0.15-0.104-0.271-0.224-0.367-0.36
		c-0.094-0.136-0.158-0.284-0.189-0.444c-0.033-0.16-0.051-0.4-0.051-0.72v-3.528h-0.721v-0.888l0.721-0.012v-1.944h0.994v1.944
		l0.842,0.012v0.888h-0.842v3.372c0,0.144,0.002,0.276,0.006,0.396s0.064,0.236,0.18,0.348c0.088,0.088,0.197,0.142,0.328,0.162
		s0.24,0.03,0.328,0.03l0.01,0.9H327.408z"/>
	<path d="M329.613,120.15c0.016,0.624,0.197,1.13,0.547,1.518c0.35,0.388,0.76,0.582,1.232,0.582c0.467,0,0.816-0.112,1.049-0.336
		s0.379-0.436,0.438-0.636h1.07c-0.117,0.408-0.375,0.812-0.775,1.212c-0.4,0.4-0.99,0.6-1.77,0.6c-0.822,0-1.496-0.308-2.02-0.924
		c-0.525-0.616-0.787-1.396-0.787-2.34s0.254-1.718,0.76-2.322s1.184-0.906,2.035-0.906c0.758,0,1.416,0.28,1.973,0.84
		s0.828,1.464,0.813,2.712H329.613z M333.141,119.322c-0.029-0.576-0.197-1.034-0.502-1.374c-0.307-0.34-0.721-0.51-1.246-0.51
		c-0.486,0-0.889,0.154-1.205,0.462c-0.316,0.308-0.502,0.782-0.553,1.422H333.141z"/>
	<path d="M341.725,122.922l-0.012-3.9c0-0.496-0.064-0.872-0.191-1.128s-0.416-0.372-0.867-0.348
		c-0.379,0.032-0.682,0.194-0.906,0.486c-0.227,0.292-0.34,0.698-0.34,1.218v3.672h-1.004v-3.9c0-0.496-0.063-0.872-0.186-1.128
		s-0.412-0.372-0.863-0.348c-0.385,0.032-0.691,0.194-0.916,0.486c-0.227,0.292-0.34,0.698-0.34,1.218v3.672h-0.992v-6.156h0.992
		v0.744c0.189-0.232,0.438-0.464,0.744-0.696c0.305-0.232,0.691-0.324,1.156-0.276c0.262,0.032,0.5,0.132,0.715,0.3
		s0.385,0.424,0.508,0.768c0.139-0.184,0.373-0.424,0.705-0.72s0.787-0.412,1.371-0.348c0.545,0.072,0.916,0.326,1.113,0.762
		c0.197,0.437,0.295,0.91,0.295,1.422v4.2H341.725z"/>
</g>
<g>
	<path d="M316.104,75.441c-0.306-0.442-0.635-0.993-0.986-1.653s-0.527-1.446-0.527-2.357c0-0.917,0.176-1.706,0.527-2.366
		s0.681-1.211,0.986-1.653h0.623c-0.455,0.746-0.78,1.446-0.973,2.101c-0.193,0.655-0.29,1.294-0.29,1.918
		c0,0.619,0.097,1.255,0.29,1.91c0.192,0.654,0.518,1.354,0.973,2.1H316.104z"/>
	<path d="M321.433,72.533v2.536h-0.865v-2.536h-3.374v-0.688h7.612v0.688H321.433z M322.172,69.695
		c0.418,0.406,1.141,0.725,2.167,0.957l-0.579,0.588c-0.524-0.116-1.058-0.326-1.597-0.63c-0.54-0.304-0.927-0.627-1.164-0.97
		c-0.229,0.326-0.584,0.638-1.063,0.937c-0.479,0.298-1.044,0.52-1.695,0.663l-0.58-0.588c1.015-0.21,1.734-0.523,2.159-0.94
		c0.423-0.417,0.664-0.736,0.723-0.957h-2.448v-0.696h5.813v0.696h-2.448C321.517,68.976,321.754,69.289,322.172,69.695z"/>
	<path d="M326.195,73.341c0.192-0.655,0.289-1.292,0.289-1.91c0-0.624-0.097-1.264-0.289-1.918
		c-0.194-0.654-0.521-1.354-0.982-2.101h0.632c0.305,0.442,0.634,0.993,0.986,1.653c0.352,0.66,0.527,1.449,0.527,2.366
		c0,0.912-0.176,1.697-0.527,2.357c-0.353,0.66-0.682,1.211-0.986,1.653h-0.632C325.675,74.696,326.001,73.996,326.195,73.341z"/>
	<path d="M334.086,70.959c-0.546-0.214-1.08-0.536-1.604-0.967c-0.522-0.431-0.892-0.841-1.106-1.232
		c-0.216,0.471-0.591,0.944-1.125,1.419s-1.052,0.831-1.552,1.066l-0.842-0.729c0.846-0.354,1.542-0.84,2.088-1.458
		s0.819-1.366,0.819-2.243v-0.807h1.211v0.807c0,0.847,0.263,1.539,0.79,2.077c0.526,0.538,1.193,0.947,2.001,1.227L334.086,70.959z
		 M329.957,75.345v-3.546h7.024v3.546H329.957z M335.828,72.727h-4.729v1.69h4.729V72.727z M336.959,68.948v2.331h-1.154v-5.546
		h1.154v2.265h1.418v0.95H336.959z"/>
	<path d="M343.371,69.429c-0.792,0.983-2.03,1.678-3.714,2.083l-0.611-0.729c0.984-0.169,1.914-0.623,2.791-1.359
		c0.877-0.736,1.342-1.439,1.396-2.11h-3.587v-0.928h4.982C344.582,67.431,344.163,68.445,343.371,69.429z M347.108,75.047
		c-0.678,0.375-1.646,0.563-2.907,0.563c-1.253,0-2.22-0.188-2.901-0.563c-0.68-0.376-1.021-0.854-1.021-1.437
		c0-0.582,0.341-1.063,1.021-1.442c0.682-0.379,1.648-0.569,2.901-0.569c1.261,0,2.229,0.19,2.907,0.569
		c0.676,0.379,1.015,0.86,1.015,1.442C348.123,74.192,347.784,74.671,347.108,75.047z M346.14,72.804
		c-0.516-0.199-1.158-0.298-1.927-0.298c-0.776,0-1.421,0.1-1.933,0.298c-0.511,0.199-0.767,0.472-0.767,0.818
		c0,0.338,0.256,0.609,0.767,0.812c0.512,0.202,1.156,0.304,1.933,0.304c0.769,0,1.411-0.102,1.927-0.304
		c0.515-0.203,0.772-0.474,0.772-0.812C346.912,73.275,346.654,73.003,346.14,72.804z M346.808,71.544v-1.337h-2.064v-0.928h2.064
		v-1.116h-1.88v-0.928h1.88v-1.502h1.154v5.812H346.808z"/>
	<path d="M355.482,67.832v-1.934h1.118v5.37h-1.118v-2.441h-1.188c-0.076,0.582-0.336,1.055-0.778,1.419s-0.975,0.547-1.598,0.547
		c-0.7,0-1.273-0.217-1.724-0.652s-0.676-0.99-0.676-1.668s0.229-1.234,0.687-1.668s1.028-0.652,1.713-0.652
		c0.569,0,1.065,0.155,1.488,0.464c0.423,0.31,0.699,0.715,0.83,1.215H355.482z M351.036,67.445
		c-0.242,0.25-0.363,0.593-0.363,1.028s0.121,0.777,0.363,1.027s0.536,0.375,0.882,0.375c0.339,0,0.631-0.125,0.877-0.375
		s0.369-0.593,0.369-1.027s-0.121-0.777-0.363-1.028c-0.242-0.25-0.536-0.375-0.883-0.375
		C351.572,67.07,351.278,67.195,351.036,67.445z M351.353,75.345v-3.546h7.383v3.546H351.353z M357.581,72.727h-5.074v1.69h5.074
		V72.727z M357.628,71.279v-5.546h1.119v5.546H357.628z"/>
	<path d="M366.061,69.655v-3.701h1.118v9.06h-1.118v-4.331h-1.073c-0.055,0.979-0.297,1.753-0.727,2.32
		c-0.432,0.567-0.969,0.851-1.615,0.851c-0.677,0-1.237-0.322-1.684-0.967s-0.67-1.523-0.67-2.635c0-1.112,0.224-1.992,0.67-2.64
		c0.446-0.648,1.007-0.973,1.684-0.973c0.631,0,1.157,0.271,1.581,0.813c0.422,0.541,0.672,1.276,0.749,2.204H366.061z
		 M363.534,68.374c-0.216-0.508-0.508-0.762-0.877-0.762c-0.385,0-0.685,0.252-0.9,0.757c-0.215,0.504-0.322,1.128-0.322,1.873
		c0,0.736,0.107,1.361,0.322,1.873c0.216,0.512,0.516,0.768,0.9,0.768c0.369,0,0.661-0.256,0.877-0.768
		c0.215-0.512,0.323-1.136,0.323-1.873S363.749,68.882,363.534,68.374z M368.159,75.456v-9.723h1.119v9.723H368.159z"/>
	<path d="M370.407,74.019v-0.928h10.15v0.928H370.407z M374.013,70.533c-0.759,0.571-1.514,0.963-2.267,1.177l-0.809-0.807
		c1.739-0.567,2.829-1.254,3.271-2.06c0.442-0.807,0.664-1.438,0.664-1.895v-0.674h1.223v0.674c0,0.457,0.237,1.094,0.714,1.912
		c0.478,0.817,1.55,1.499,3.219,2.043l-0.808,0.807c-0.776-0.213-1.529-0.62-2.26-1.221c-0.731-0.6-1.223-1.169-1.477-1.707
		C375.26,69.379,374.77,69.963,374.013,70.533z"/>
</g>
</svg>
